<?xml version="1.0" encoding="iso-8859-1"?>
<!-- Generator: Adobe Illustrator 19.0.0, SVG Export Plug-In . SVG Version: 6.00 Build 0)  -->
<svg version="1.1" id="Capa_1" xmlns="http://www.w3.org/2000/svg" xmlns:xlink="http://www.w3.org/1999/xlink" x="0px" y="0px"
	 width="56.832" height="60.02"  viewBox="0 0 480 480" style="enable-background:new 0 0 480 480;" xml:space="preserve">
<path style="fill:#78B9EB;" d="M24,64v352h432V64H24z M200,104c44.183,0,80,35.817,80,80s-35.817,80-80,80s-80-35.817-80-80
	S155.817,104,200,104z"/>
<g>
	<path style="fill:#1E81CE;" d="M472,72c4.418,0,8-3.582,8-8V32c0-4.418-3.582-8-8-8H8c-4.418,0-8,3.582-8,8v32c0,4.418,3.582,8,8,8
		h8v336H8c-4.418,0-8,3.582-8,8v32c0,4.418,3.582,8,8,8h464c4.418,0,8-3.582,8-8v-32c0-4.418-3.582-8-8-8h-8V72H472z M16,40h448v16
		H16V40z M464,440H16v-16h448V440z M448,408H32V72h416V408z"/>
	<path style="fill:#1E81CE;" d="M72,384h344v-16H80v-13.112L122.888,312H272c2.122,0,4.156-0.844,5.656-2.344L368,219.312V248h16
		v-48c0-4.418-3.582-8-8-8h-48v16h28.688l-88,88H119.576c-2.122,0-4.156,0.844-5.656,2.344L80,332.264V152H64v224
		C64,380.418,67.582,384,72,384L72,384z"/>
	<path style="fill:#1E81CE;" d="M168,224v16h16v-16h8v16h16v-16h8c13.197,0.058,23.943-10.593,24.002-23.79
		c0.027-5.995-2.201-11.781-6.242-16.21c8.894-9.75,8.2-24.864-1.55-33.758c-4.429-4.04-10.215-6.268-16.21-6.242h-8v-16h-16v16h-8
		v-16h-16v16c-4.418,0-8,3.582-8,8v64C160,220.418,163.582,224,168,224z M216,208h-40v-16h40c4.418,0,8,3.582,8,8
		S220.418,208,216,208z M224,168c0,4.418-3.582,8-8,8h-40v-16h40C220.418,160,224,163.582,224,168z"/>
	<path style="fill:#1E81CE;" d="M200,272c48.601,0,88-39.399,88-88s-39.399-88-88-88s-88,39.399-88,88
		C112.057,232.577,151.423,271.943,200,272z M200,112c39.764,0,72,32.236,72,72s-32.236,72-72,72s-72-32.236-72-72
		C128.044,144.254,160.254,112.044,200,112z"/>
	<path style="fill:#1E81CE;" d="M328,104h16v16h-16V104z"/>
	<path style="fill:#1E81CE;" d="M360,104h48v16h-48V104z"/>
	<path style="fill:#1E81CE;" d="M328,136h80v16h-80V136z"/>
</g>
<g>
</g>
<g>
</g>
<g>
</g>
<g>
</g>
<g>
</g>
<g>
</g>
<g>
</g>
<g>
</g>
<g>
</g>
<g>
</g>
<g>
</g>
<g>
</g>
<g>
</g>
<g>
</g>
<g>
</g>
</svg>
